<svg width="16" height="16" viewBox="0 0 16 16" fill="none" xmlns="http://www.w3.org/2000/svg">
<g clip-path="url(#clip0_418_373)">
<path d="M6 0.278298C6.09761 0.396911 6.15741 0.54207 6.17168 0.695021C6.18594 0.847972 6.154 1.00168 6.08 1.1363C5.50186 2.19777 5.19993 3.38759 5.202 4.5963C5.202 8.6173 8.48 11.8733 12.52 11.8733C13.047 11.8733 13.56 11.8183 14.053 11.7133C14.2041 11.6806 14.3615 11.6931 14.5056 11.7493C14.6497 11.8055 14.774 11.9029 14.863 12.0293C14.957 12.1607 15.0049 12.3196 14.9993 12.4811C14.9937 12.6426 14.9349 12.7977 14.832 12.9223C14.0477 13.8857 13.0582 14.662 11.9358 15.1945C10.8134 15.727 9.58632 16.0023 8.344 16.0003C3.734 16.0003 0 12.2863 0 7.7103C0 4.2663 2.114 1.3123 5.124 0.0602985C5.27394 -0.00306965 5.44039 -0.0160757 5.59835 0.0232342C5.75631 0.062544 5.89725 0.152047 6 0.278298V0.278298ZM4.858 1.3113C3.7006 1.93213 2.73304 2.85494 2.05813 3.98166C1.38323 5.10838 1.0262 6.39691 1.025 7.7103C1.025 11.7303 4.304 14.9863 8.344 14.9863C9.31144 14.988 10.2696 14.7978 11.1631 14.4266C12.0565 14.0555 12.8675 13.5109 13.549 12.8243C13.212 12.8663 12.869 12.8873 12.52 12.8873C7.91 12.8873 4.177 9.1733 4.177 4.5973C4.177 3.4303 4.419 2.3193 4.858 1.3113V1.3113Z" fill="black"/>
<path d="M10.7948 3.14846C10.8091 3.10515 10.8367 3.06747 10.8737 3.04076C10.9107 3.01405 10.9552 2.99967 11.0008 2.99967C11.0464 2.99967 11.0909 3.01405 11.1278 3.04076C11.1648 3.06747 11.1924 3.10515 11.2068 3.14846L11.5938 4.31046C11.7668 4.82846 12.1728 5.23446 12.6908 5.40746L13.8528 5.79446C13.8961 5.8088 13.9338 5.83642 13.9605 5.8734C13.9872 5.91038 14.0016 5.95484 14.0016 6.00046C14.0016 6.04607 13.9872 6.09053 13.9605 6.12751C13.9338 6.16449 13.8961 6.19212 13.8528 6.20646L12.6908 6.59346C12.4353 6.67857 12.2032 6.82202 12.0128 7.01243C11.8224 7.20284 11.6789 7.43498 11.5938 7.69046L11.2068 8.85246C11.1924 8.89576 11.1648 8.93345 11.1278 8.96016C11.0909 8.98687 11.0464 9.00124 11.0008 9.00124C10.9552 9.00124 10.9107 8.98687 10.8737 8.96016C10.8367 8.93345 10.8091 8.89576 10.7948 8.85246L10.4078 7.69046C10.3227 7.43498 10.1792 7.20284 9.98881 7.01243C9.7984 6.82202 9.56626 6.67857 9.31079 6.59346L8.14879 6.20646C8.10548 6.19212 8.0678 6.16449 8.04109 6.12751C8.01438 6.09053 8 6.04607 8 6.00046C8 5.95484 8.01438 5.91038 8.04109 5.8734C8.0678 5.83642 8.10548 5.8088 8.14879 5.79446L9.31079 5.40746C9.56626 5.32234 9.7984 5.17889 9.98881 4.98848C10.1792 4.79807 10.3227 4.56593 10.4078 4.31046L10.7948 3.14846V3.14846ZM13.8638 0.0994558C13.8737 0.0709821 13.8922 0.0462917 13.9167 0.0288174C13.9413 0.011343 13.9707 0.00195312 14.0008 0.00195312C14.0309 0.00195313 14.0603 0.011343 14.0849 0.0288174C14.1094 0.0462917 14.1279 0.0709821 14.1378 0.0994558L14.3958 0.873456C14.5108 1.21946 14.7818 1.49046 15.1278 1.60546L15.9018 1.86346C15.9303 1.87333 15.955 1.89183 15.9724 1.91638C15.9899 1.94093 15.9993 1.97032 15.9993 2.00046C15.9993 2.03059 15.9899 2.05998 15.9724 2.08453C15.955 2.10909 15.9303 2.12758 15.9018 2.13746L15.1278 2.39546C14.9573 2.45218 14.8023 2.54787 14.6753 2.67494C14.5482 2.802 14.4525 2.95694 14.3958 3.12746L14.1378 3.90146C14.1279 3.92993 14.1094 3.95462 14.0849 3.97209C14.0603 3.98957 14.0309 3.99896 14.0008 3.99896C13.9707 3.99896 13.9413 3.98957 13.9167 3.97209C13.8922 3.95462 13.8737 3.92993 13.8638 3.90146L13.6058 3.12746C13.5491 2.95694 13.4534 2.802 13.3263 2.67494C13.1992 2.54787 13.0443 2.45218 12.8738 2.39546L12.0998 2.13746C12.0713 2.12758 12.0466 2.10909 12.0291 2.08453C12.0117 2.05998 12.0023 2.03059 12.0023 2.00046C12.0023 1.97032 12.0117 1.94093 12.0291 1.91638C12.0466 1.89183 12.0713 1.87333 12.0998 1.86346L12.8738 1.60546C13.2198 1.49046 13.4908 1.21946 13.6058 0.873456L13.8638 0.100456V0.0994558Z" fill="black"/>
</g>
<defs>
<clipPath id="clip0_418_373">
<rect width="16" height="16" fill="white"/>
</clipPath>
</defs>
</svg>
