<svg width="40" height="40" viewBox="0 0 40 40" fill="none" xmlns="http://www.w3.org/2000/svg">
<path fill-rule="evenodd" clip-rule="evenodd" d="M28.7061 25.9753C28.1546 26.0993 27.7621 26.6042 27.8184 27.1666L28.4875 33.8582C28.6137 35.1197 27.6231 36.2143 26.3553 36.2143H13.9481C12.6804 36.2143 11.6897 35.1197 11.8159 33.8582L12.4789 27.2285C12.5357 26.66 12.1345 26.1511 11.5749 26.0359C7.60646 25.2183 5 23.1611 5 18C5 9.71573 11.7157 3 20 3C28.2843 3 35 9.71573 35 18C35 23.0382 32.5161 25.1185 28.7061 25.9753ZM14.5417 21.0678C16.8569 20.5756 18.8802 17.6232 18.5111 15.8868C18.142 14.1504 15.7851 13.0756 13.4699 13.5678C11.1547 14.0599 9.75787 15.9325 10.127 17.6689C10.496 19.4053 12.2265 21.5599 14.5417 21.0678ZM21.7924 15.8869C21.4233 17.6233 23.4465 20.5757 25.7618 21.0678C28.077 21.5599 29.8074 19.4054 30.1765 17.669C30.5456 15.9325 29.1487 14.0599 26.8335 13.5678C24.5183 13.0757 22.1614 14.1505 21.7924 15.8869ZM20.5517 22.2534C20.4107 21.8873 19.8927 21.8873 19.7517 22.2534L18.6249 25.181C18.4646 25.5975 18.9681 25.9511 19.3054 25.659L20.1522 24.9258L20.9977 25.6582C21.335 25.9504 21.8385 25.5968 21.6782 25.1803L20.5517 22.2534Z" fill="#ECECEC"/>
</svg>
