<svg width="64" height="64" viewBox="0 0 64 64" fill="none" xmlns="http://www.w3.org/2000/svg">
<path d="M18 18H46V46H18V18Z" fill="#F5DE19"/>
<path d="M36.8091 39.8749C37.0476 40.3595 37.4183 40.7668 37.8783 41.0499C38.3383 41.333 38.869 41.4803 39.4091 41.4749C40.4991 41.4749 41.1961 40.9299 41.1961 40.1749C41.1961 39.2749 40.4801 38.9529 39.2801 38.4279L38.6221 38.1459C36.7221 37.3369 35.4621 36.3239 35.4621 34.1819C35.4621 32.2089 36.9621 30.7059 39.3151 30.7059C40.0768 30.6509 40.8378 30.8214 41.5033 31.1961C42.1687 31.5708 42.7091 32.1331 43.0571 32.8129L41.0001 34.1279C40.8661 33.7908 40.6328 33.5024 40.3312 33.301C40.0295 33.0995 39.6738 32.9945 39.3111 32.9999C39.1528 32.9841 38.993 33.0014 38.8418 33.0507C38.6907 33.1 38.5514 33.1803 38.433 33.2864C38.3145 33.3925 38.2195 33.5222 38.1539 33.667C38.0883 33.8119 38.0536 33.9689 38.0521 34.1279C38.0521 34.9169 38.5411 35.2369 39.6701 35.7279L40.3281 36.0099C42.5641 36.9689 43.8281 37.9459 43.8281 40.1429C43.8281 42.5119 41.9671 43.8099 39.4681 43.8099C38.4944 43.8719 37.5235 43.6509 36.6727 43.1734C35.8218 42.6959 35.1274 41.9824 34.6731 41.1189L36.8091 39.8749ZM27.5141 40.1029C27.9271 40.8359 28.3031 41.4559 29.2071 41.4559C30.0711 41.4559 30.6171 41.1179 30.6171 39.8029V30.8559H33.2481V39.8379C33.2481 42.5619 31.6481 43.8019 29.3191 43.8019C28.4958 43.8469 27.6782 43.6417 26.9738 43.2134C26.2693 42.785 25.7109 42.1535 25.3721 41.4019L27.5141 40.1029Z" fill="black"/>
<circle cx="32" cy="32" r="32" fill="white"/>
<path fill-rule="evenodd" clip-rule="evenodd" d="M20.3083 15.3335C18.025 15.3335 16.3367 17.3318 16.4133 19.4968C16.485 21.5802 16.3917 24.2752 15.7133 26.4735C15.03 28.6768 13.88 30.0735 12 30.2535V32.2785C13.88 32.4568 15.0317 33.8535 15.7117 36.0585C16.3917 38.2568 16.485 40.9518 16.4117 43.0335C16.3367 45.2002 18.025 47.1985 20.3083 47.1985H43.695C45.9783 47.1985 47.6667 45.2002 47.59 43.0335C47.5183 40.9518 47.6117 38.2568 48.29 36.0585C48.9717 33.8535 50.12 32.4585 52 32.2785V30.2535C50.12 30.0735 48.9717 28.6768 48.29 26.4735C47.6117 24.2735 47.5183 21.5785 47.59 19.4968C47.6667 17.3302 45.9767 15.3335 43.695 15.3335H20.3083ZM39.1167 34.9485C39.1167 37.9318 36.8917 39.7402 33.2 39.7402H26.915C26.7351 39.7402 26.5626 39.6687 26.4353 39.5415C26.3081 39.4143 26.2367 39.2417 26.2367 39.0618V23.4685C26.2371 23.2889 26.3088 23.1168 26.4359 22.9899C26.5631 22.8631 26.7354 22.7918 26.915 22.7918H33.165C36.2433 22.7918 38.265 24.4585 38.265 27.0202C38.265 28.8168 36.905 30.4252 35.1733 30.7085V30.8018C37.5317 31.0602 39.1183 32.6935 39.1183 34.9485H39.1167ZM32.5167 24.9402H28.9333V30.0035H31.9517C34.285 30.0035 35.5717 29.0635 35.5717 27.3835C35.5717 25.8102 34.465 24.9402 32.5167 24.9402ZM28.9333 32.0118V37.5902H32.65C35.0783 37.5902 36.3667 36.6152 36.3667 34.7835C36.3667 32.9502 35.0433 32.0118 32.4933 32.0118H28.9333Z" fill="#080135"/>
</svg>
