<svg width="143" height="120" viewBox="0 0 143 120" fill="none" xmlns="http://www.w3.org/2000/svg">
<path fill-rule="evenodd" clip-rule="evenodd" d="M0 18.7419C21.4182 29.1541 32.1271 41.3882 32.1271 55.4447C22.9981 56.4859 15.4491 60.1735 9.48013 66.5076C3.51112 72.8417 0.526672 80.1735 0.526672 88.5033C0.526672 97.3536 3.42336 104.816 9.2168 110.889C15.0102 116.963 22.2958 120 31.0738 120C40.9051 120 49.4195 116.052 56.6175 108.156C63.8154 100.26 67.4143 90.6725 67.4143 79.3926C67.4143 45.553 48.2786 19.089 10.0068 0L0 18.7419ZM75.5857 18.7419C97.1795 29.1541 107.976 41.3882 107.976 55.4447C98.6716 56.4859 91.0349 60.1735 85.0658 66.5076C79.0968 72.8417 76.1124 80.1735 76.1124 88.5033C76.1124 97.3536 79.053 104.816 84.9342 110.889C90.8154 116.963 98.1449 120 106.923 120C116.754 120 125.225 116.052 132.335 108.156C139.445 100.26 143 90.6725 143 79.3926C143 45.553 123.952 19.089 85.8559 0L75.5857 18.7419Z" fill="#2EC5CE"/>
</svg>
