<svg width="64" height="64" viewBox="0 0 64 64" fill="none" xmlns="http://www.w3.org/2000/svg">
<circle cx="32" cy="32" r="32" fill="#33A9DC"/>
<path d="M19.3778 46.0013L16.5703 14.5H47.4303L44.6191 45.9963L31.9816 49.5L19.3778 46.0013Z" fill="#1572B6"/>
<path d="M32 46.8224L42.2125 43.9912L44.615 17.0762H32V46.8224Z" fill="#33A9DC"/>
<path d="M32 28.4889H37.1125L37.465 24.5327H32V20.6689H41.6875L41.595 21.7052L40.6462 32.3527H32V28.4889Z" fill="white"/>
<path d="M32.0236 38.5224L32.0061 38.5274L27.7036 37.3649L27.4286 34.2837H23.5498L24.0911 40.3499L32.0048 42.5474L32.0236 42.5424V38.5224Z" fill="#EBEBEB"/>
<path d="M36.7835 32.189L36.3185 37.3627L32.0098 38.5252V42.5452L39.9298 40.3502L39.9885 39.6977L40.6598 32.189H36.7835Z" fill="white"/>
<path d="M32.0137 20.6689V24.5327H22.6812L22.6037 23.6639L22.4275 21.7052L22.335 20.6689H32.0137ZM32 28.4889V32.3527H27.7512L27.6737 31.4839L27.4987 29.5252L27.4062 28.4889H32Z" fill="#EBEBEB"/>
</svg>
