<svg width="512" height="512" viewBox="0 0 512 512" fill="none" xmlns="http://www.w3.org/2000/svg">
<path d="M436.574 120H352V64H32V408C32.0191 424.968 38.768 441.236 50.7662 453.234C62.7644 465.232 79.032 471.981 96 472H288C304.968 471.981 321.236 465.232 333.234 453.234C345.232 441.236 351.981 424.968 352 408V400H436.574C452.329 399.982 467.434 393.716 478.575 382.575C489.716 371.434 495.982 356.329 496 340.574V179.426C495.982 163.671 489.716 148.566 478.575 137.425C467.434 126.284 452.329 120.018 436.574 120ZM161.374 238.894L192 269.521V326.894H128V269.521L158.627 238.894H161.374ZM464 340.574C463.992 347.845 461.1 354.816 455.958 359.958C450.816 365.1 443.845 367.992 436.574 368H320V408C319.99 416.484 316.616 424.618 310.617 430.617C304.618 436.616 296.484 439.99 288 440H96C87.516 439.99 79.3822 436.616 73.3831 430.617C67.384 424.618 64.0095 416.484 64 408V96H144V208.266L96 256.266V358.894H224V256.266L176 208.266V96H320V152H436.574C443.845 152.008 450.816 154.9 455.958 160.042C461.1 165.184 463.992 172.155 464 179.426V340.574Z" fill="#AEAEAE" fill-opacity="0.35"/>
<path d="M416 180H320V340H416C421.302 339.994 426.386 337.885 430.135 334.135C433.885 330.386 435.994 325.302 436 320V200C435.994 194.698 433.885 189.614 430.135 185.865C426.386 182.115 421.302 180.006 416 180ZM404 308H352V212H404V308Z" fill="#AEAEAE" fill-opacity="0.35"/>
</svg>
