<svg width="64" height="64" viewBox="0 0 64 64" fill="none" xmlns="http://www.w3.org/2000/svg">
<circle cx="32" cy="32" r="32" fill="#2B2E3A"/>
<g clip-path="url(#clip0_625_612)">
<path d="M26.2309 18.8823C23.7174 18.3462 21.1251 18.3723 18.6218 18.959L18.7436 18.936C17.822 19.1243 16.9473 19.5112 16.1742 20.0726C15.4011 20.6339 14.7463 21.3576 14.2509 22.1981L14.2345 22.2288C13.5188 23.5063 13.2487 25.0072 13.4709 26.4723L13.4673 26.4359C13.7218 28.2912 14.3073 29.9568 15.16 31.4345L15.1291 31.377C15.1873 31.4729 15.2618 31.5515 15.3491 31.609L15.3527 31.6109C15.4431 31.6628 15.5444 31.6898 15.6473 31.6895H15.6764H15.6745C15.745 31.6867 15.8143 31.6692 15.8783 31.638C15.9423 31.6067 15.9997 31.5623 16.0473 31.5074C16.1 31.4582 16.1425 31.3981 16.1722 31.3308C16.202 31.2636 16.2182 31.1906 16.22 31.1164V31.1068C16.22 31.047 16.2114 30.9876 16.1945 30.9305L16.1964 30.9343C16.1809 30.8927 16.1723 30.8486 16.1709 30.804C15.3956 29.4838 14.8759 28.0149 14.6418 26.4819L14.6327 26.4129C14.4405 25.1807 14.6569 23.9163 15.2455 22.8325L15.2327 22.8594C15.6785 22.14 16.2585 21.5238 16.9374 21.0483C17.6163 20.5728 18.38 20.248 19.1818 20.0936L19.2182 20.0879C21.4866 19.5895 23.8289 19.5966 26.0945 20.109L25.9855 20.0879H25.9927C26.0182 20.0879 26.0418 20.0975 26.06 20.1147L26.0855 20.1416H26.0964C26.1729 20.1418 26.2488 20.1258 26.3194 20.0945C26.39 20.0632 26.4539 20.0173 26.5073 19.9595C26.5622 19.9024 26.6057 19.8343 26.6354 19.7593C26.665 19.6843 26.6802 19.6038 26.68 19.5225V19.4822C26.68 19.3421 26.6359 19.2059 26.5545 19.095L26.5564 19.097C26.4736 18.9944 26.3623 18.922 26.2382 18.89H26.2345L26.2309 18.8823ZM18.0982 35.609C19.3298 36.9758 20.6454 38.2557 22.0364 39.4405L22.1127 39.5037C23.4327 40.6288 24.9055 41.7079 26.4509 42.672L26.6218 42.7716C28.5606 43.9429 30.5889 44.9411 32.6855 45.7559L32.9745 45.8555C34.6945 46.5494 36.7218 47.1225 38.8182 47.4771L38.9982 47.502C39.8909 47.661 40.9182 47.7511 41.9655 47.7511C42.7655 47.7511 43.5527 47.6975 44.3255 47.5959L44.2327 47.6055C45.6763 47.4369 47.0634 46.9187 48.2855 46.0913L48.2473 46.1143C48.3126 46.045 48.37 45.9678 48.4182 45.8843L48.4218 45.8785C48.4709 45.7937 48.4967 45.6962 48.4964 45.5968V45.5853C48.4966 45.504 48.4814 45.4235 48.4518 45.3485C48.4221 45.2734 48.3785 45.2054 48.3236 45.1483C48.2695 45.0904 48.2049 45.0445 48.1338 45.0132C48.0626 44.982 47.9862 44.966 47.9091 44.9662H47.9018C47.8496 44.9727 47.7994 44.991 47.7545 45.0199L47.7564 45.018C47.7029 45.0448 47.6538 45.0803 47.6109 45.1234C46.4959 45.8671 45.23 46.3229 43.9164 46.4535L43.8818 46.4555C42.2111 46.6474 40.523 46.5906 38.8673 46.2868L38.9745 46.3021C36.9727 45.9573 35.0076 45.4072 33.1073 44.6595L33.3218 44.7343C31.2138 43.9332 29.1863 42.9136 27.2691 41.6906L27.4218 41.7807C25.8081 40.811 24.2661 39.7141 22.8091 38.4994L22.8855 38.5607C21.5034 37.4129 20.2086 36.153 19.0127 34.7925L18.9927 34.7695C18.9305 34.7041 18.8562 34.6525 18.7745 34.6181L18.7709 34.6162C18.7009 34.5838 18.6255 34.5662 18.5491 34.5645H18.54C18.4629 34.5642 18.3865 34.5802 18.3153 34.6115C18.2442 34.6428 18.1796 34.6887 18.1255 34.7465C18.0706 34.8036 18.027 34.8717 17.9973 34.9467C17.9677 35.0217 17.9525 35.1023 17.9527 35.1835V35.1912C17.9527 35.2679 17.9709 35.3388 18.0036 35.402L18.0018 35.4001L18.0982 35.609ZM46.8109 34.8251C48.477 32.9157 49.734 30.6507 50.4964 28.1839L50.5309 28.0555C50.7803 27.3 50.9063 26.5055 50.9036 25.7056C50.9036 24.4502 50.6 23.2695 50.0673 22.2403L50.0855 22.2786C49.3993 21.0448 48.3525 20.0785 47.1018 19.5244L47.06 19.509C45.5537 18.8476 43.9372 18.5101 42.3055 18.5162H42.2473H42.2509H42.2309C42.1594 18.5161 42.0888 18.5323 42.0238 18.5637C41.9588 18.5952 41.9011 18.6411 41.8545 18.6983C41.7601 18.8169 41.7086 18.967 41.7091 19.1219V19.1449V19.143V19.164C41.7091 19.325 41.7636 19.4726 41.8564 19.5876V19.5857C41.9027 19.6431 41.9604 19.6892 42.0254 19.7206C42.0905 19.7521 42.1612 19.7682 42.2327 19.7678H42.2545H42.2527C42.3436 19.764 42.4527 19.764 42.56 19.764C43.9855 19.764 45.3473 20.063 46.5873 20.6054L46.5182 20.5785C47.5721 21.0333 48.4678 21.8189 49.0836 22.8287L49.0964 22.8517C49.4664 23.6316 49.6804 24.4834 49.7252 25.3542C49.7699 26.225 49.6444 27.0961 49.3564 27.9136L49.3691 27.8695C48.6585 30.1586 47.4974 32.2636 45.9618 34.047L45.9727 34.0335L45.8745 34.2425C45.8421 34.3068 45.8253 34.3785 45.8255 34.4514V34.459C45.8255 34.6296 45.8909 34.7849 45.9982 34.896C46.0523 34.9539 46.1169 34.9998 46.1881 35.0311C46.2592 35.0624 46.3356 35.0784 46.4127 35.0781H46.4345C46.5186 35.0783 46.6006 35.0508 46.6691 34.9995H46.6673C46.7272 34.9514 46.7911 34.9091 46.8582 34.873L46.8655 34.8692L46.8109 34.8251ZM37.24 19.0931C35.2577 19.5788 33.3156 20.2319 31.4327 21.0462L31.6873 20.9485C29.72 21.7918 28.0727 22.66 26.4982 23.6414L26.68 23.536C24.6305 24.7746 22.697 26.2154 20.9055 27.8389L20.9545 27.7967C19.3876 29.2025 17.9592 30.7712 16.6909 32.4791L16.64 32.55C15.5723 33.9786 14.7091 35.5646 14.0782 37.2574L14.0364 37.3839C13.626 38.4524 13.4167 39.5949 13.42 40.7476C13.42 41.1482 13.4455 41.543 13.4927 41.9283L13.4873 41.8823C13.5218 42.0261 13.5909 42.1506 13.6855 42.2484C13.7818 42.3442 13.9109 42.4017 14.0545 42.4017H14.0855H14.0836H14.0945C14.1712 42.4018 14.2471 42.386 14.318 42.3551C14.3888 42.3241 14.4531 42.2788 14.5073 42.2215C14.5622 42.1645 14.6057 42.0964 14.6354 42.0214C14.665 41.9464 14.6802 41.8658 14.68 41.7845V41.6734C14.5328 40.2756 14.7307 38.8614 15.2545 37.5679L15.2345 37.6215C15.8438 35.987 16.6856 34.4599 17.7309 33.0925L17.7073 33.125C18.9376 31.4998 20.3177 30.0071 21.8273 28.6688L21.8727 28.6305C23.55 27.1357 25.3478 25.7979 27.2455 24.6323L27.4255 24.5288C28.7236 23.7046 30.2545 22.89 31.8418 22.1905L32.08 22.0985C33.673 21.3981 35.3156 20.8303 36.9927 20.4003L37.2364 20.3466C37.4366 20.3077 37.6242 20.216 37.7818 20.0802L37.78 20.0821C37.874 19.9769 37.9261 19.8376 37.9255 19.693V19.6605V19.6624C37.9229 19.5881 37.9063 19.5151 37.8766 19.4476C37.8469 19.3801 37.8048 19.3196 37.7527 19.2695C37.7061 19.2139 37.6491 19.1691 37.5852 19.1377C37.5214 19.1064 37.4522 19.0893 37.3818 19.0874H37.2364L37.24 19.0931ZM23.4055 45.6888C24.1963 48.2225 25.4849 50.5521 27.1873 52.5255L27.1745 52.5102C27.7915 53.2626 28.55 53.8718 29.4019 54.299C30.2538 54.7263 31.1806 54.9624 32.1236 54.9923H32.1345C33.5034 54.9803 34.8314 54.4993 35.9182 53.6219L35.9036 53.6334C37.178 52.6186 38.2469 51.3452 39.0473 49.8882L39.0782 49.8269C39.1061 49.7714 39.1298 49.7138 39.1491 49.6544L39.1527 49.6448C39.1698 49.5891 39.1784 49.5309 39.1782 49.4723V49.4531C39.1784 49.3718 39.1632 49.2913 39.1336 49.2163C39.1039 49.1413 39.0604 49.0732 39.0055 49.0161C38.9513 48.9583 38.8868 48.9123 38.8156 48.8811C38.7444 48.8498 38.668 48.8338 38.5909 48.834H38.58C38.4844 48.8339 38.3906 48.8618 38.3091 48.9146L38.3109 48.9126C38.2221 48.9717 38.147 49.0509 38.0909 49.1445L38.0891 49.1484C37.3784 50.4607 36.4352 51.6169 35.3109 52.5543L35.2873 52.5735C34.3898 53.3192 33.2844 53.7327 32.1418 53.7503H32.1382C31.3236 53.7099 30.526 53.49 29.797 53.1047C29.0679 52.7195 28.4236 52.1774 27.9055 51.5135L27.8982 51.502C26.4135 49.7274 25.2864 47.6531 24.5855 45.4051L24.5527 45.2806C24.4836 45.174 24.401 45.0779 24.3073 44.995L24.3055 44.993C24.2108 44.909 24.091 44.8628 23.9673 44.8627H23.9582C23.8877 44.8654 23.8184 44.8829 23.7544 44.9142C23.6904 44.9455 23.633 44.9899 23.5855 45.0448C23.5306 45.1019 23.487 45.1699 23.4573 45.245C23.4277 45.32 23.4125 45.4005 23.4127 45.4818V45.6984L23.4055 45.6888ZM41.2564 44.5925C41.7145 43.0994 42.1127 41.2996 42.3745 39.4539L42.3964 39.2622C42.6491 37.5372 42.7927 35.5477 42.7927 33.5237V33.4566V33.4605V33.0081C42.7927 30.482 42.5764 28.0095 42.1618 25.6117L42.1982 25.8628C41.8365 23.6327 41.247 21.4503 40.44 19.3538L40.5127 19.5646C39.8643 17.8215 38.9773 16.1878 37.88 14.7155L37.9091 14.7557C37.0516 13.5671 35.9403 12.6084 34.6655 11.9574L34.6127 11.9325C34.597 11.9159 34.5783 11.9027 34.5577 11.8938C34.5371 11.885 34.515 11.8805 34.4927 11.8807H34.3455C34.1983 11.8804 34.0558 11.9354 33.9436 12.036H33.9455C33.891 12.0848 33.8473 12.1457 33.8175 12.2142C33.7876 12.2827 33.7724 12.3573 33.7727 12.4327V12.4557V12.4538V12.4691C33.7727 12.5995 33.8091 12.7221 33.8727 12.8237L33.8709 12.8218C33.9291 12.9176 34.0145 12.9905 34.1145 13.0288L34.1182 13.0307C35.2984 13.637 36.3225 14.5345 37.1036 15.647L37.12 15.67C38.0582 16.9733 38.8582 18.4645 39.4582 20.0649L39.5 20.1914C40.1582 21.8972 40.7091 23.9059 41.06 25.9855L41.0855 26.1714C41.4491 28.226 41.6564 30.5893 41.6564 33.0043V33.1576V33.15V33.495C41.6573 35.4432 41.5163 37.3885 41.2345 39.314L41.26 39.1031C40.9921 41.0126 40.5724 42.895 40.0055 44.7305L40.0709 44.487L40.12 44.3337V44.3931C40.12 44.5637 40.1855 44.719 40.2927 44.8301C40.3469 44.888 40.4114 44.9339 40.4826 44.9652C40.5538 44.9965 40.6302 45.0124 40.7073 45.0122H40.7236C40.8479 45.0117 40.9681 44.9657 41.0636 44.8819C41.1507 44.8109 41.2184 44.7171 41.26 44.6097L41.2618 44.6059L41.2564 44.5925ZM52.2655 43.9638V43.9255C52.2655 43.1301 51.9527 42.4113 51.4491 41.8976C51.1952 41.6241 50.892 41.4069 50.5572 41.2588C50.2225 41.1106 49.863 41.0346 49.5 41.0351H49.4364H49.44H49.4055C48.6491 41.0351 47.9673 41.3667 47.4818 41.8976C46.9782 42.4113 46.6636 43.1301 46.6636 43.9255V43.9657V43.9638V44.0251C46.6636 44.8301 46.9764 45.5585 47.4818 46.0798C47.9691 46.6126 48.6509 46.9442 49.4073 46.9442H49.4436H49.4418H49.5018C50.2655 46.9442 50.9545 46.6145 51.4509 46.0817C51.7096 45.8139 51.915 45.4945 52.0552 45.142C52.1954 44.7895 52.2675 44.4111 52.2673 44.029V43.958V43.9619L52.2655 43.9638ZM51.0745 43.9638V44.0021C51.0749 44.2233 51.0334 44.4422 50.9526 44.6463C50.8717 44.8503 50.7531 45.0353 50.6036 45.1905C50.4565 45.348 50.281 45.4731 50.0874 45.5583C49.8939 45.6436 49.6861 45.6873 49.4764 45.6869H49.4382H49.44H49.4345C49.2237 45.6871 49.0149 45.6434 48.8202 45.5582C48.6255 45.473 48.4487 45.348 48.3 45.1905C48.1433 45.0381 48.0183 44.8532 47.9329 44.6473C47.8475 44.4415 47.8035 44.2192 47.8036 43.9945V43.9619V43.9638C47.8041 43.7385 47.8482 43.5158 47.9333 43.3091C48.0183 43.1025 48.1425 42.9163 48.2982 42.762C48.4442 42.5973 48.6206 42.4658 48.8167 42.3758C49.0128 42.2858 49.2243 42.2392 49.4382 42.2388H49.4673C49.9145 42.2388 50.3182 42.44 50.6 42.7601L50.6018 42.762C50.8927 43.0687 51.0727 43.4923 51.0727 43.96V43.9638H51.0745ZM14.8255 46.9519H14.86C15.6145 46.9519 16.2964 46.6222 16.7836 46.0913C17.0434 45.8234 17.2498 45.5034 17.3906 45.1503C17.5314 44.7971 17.6038 44.4178 17.6036 44.0347V43.937C17.6036 43.1396 17.2891 42.4209 16.7855 41.9091C16.5364 41.6363 16.2376 41.4193 15.9071 41.2711C15.5765 41.1229 15.221 41.0466 14.8618 41.0466H14.8236H14.8255H14.7673C14.0036 41.0466 13.3127 41.3763 12.8182 41.9091C12.3145 42.4228 12 43.1415 12 43.937V43.9772V43.9753V44.0366C12 44.8416 12.3127 45.57 12.8182 46.0913C13.0722 46.364 13.3753 46.5805 13.7096 46.7283C14.044 46.8761 14.4029 46.9521 14.7655 46.9519H14.8291H14.8255ZM14.8255 45.6965H14.7891C14.5793 45.6968 14.3716 45.6531 14.178 45.5679C13.9845 45.4827 13.809 45.3576 13.6618 45.2C13.5123 45.0449 13.3937 44.8599 13.3129 44.6559C13.232 44.4518 13.1905 44.2328 13.1909 44.0117V43.9676C13.1909 43.5 13.3709 43.0783 13.6618 42.7716C13.8063 42.6065 13.9818 42.4747 14.1771 42.3847C14.3723 42.2946 14.5832 42.2482 14.7964 42.2484H14.8273H14.8255C15.2745 42.2503 15.68 42.4496 15.9655 42.7697C16.1218 42.9236 16.2464 43.1096 16.3318 43.3163C16.4172 43.523 16.4614 43.746 16.4618 43.9715V44.0021C16.462 44.2264 16.4181 44.4482 16.333 44.6537C16.2479 44.8592 16.1234 45.0439 15.9673 45.1962L15.9655 45.1981C15.6651 45.5119 15.2592 45.6876 14.8364 45.6869H14.8255V45.6965ZM32.1345 14.9071H32.1945C32.9582 14.9071 33.6473 14.5775 34.1436 14.0446C34.6491 13.531 34.9636 12.8122 34.9636 12.0149V11.9152C34.9636 11.1102 34.6509 10.3838 34.1455 9.86055C33.8916 9.58703 33.5883 9.36981 33.2536 9.22169C32.9188 9.07356 32.5594 8.99753 32.1964 8.99805H32.1327H32.1364H32.1018C31.3455 8.99805 30.6636 9.32963 30.1782 9.86055C29.6727 10.3838 29.36 11.1102 29.36 11.9152V11.9823V11.9785V12.0149C29.36 12.8122 29.6745 13.531 30.1782 14.0427C30.6655 14.5736 31.3473 14.9052 32.1018 14.9052H32.1327H32.1309L32.1345 14.9071ZM32.1345 13.6536H32.1218C31.9158 13.6539 31.712 13.61 31.5225 13.5247C31.3331 13.4394 31.1622 13.3143 31.02 13.1572C30.8709 13.0073 30.7523 12.8271 30.6714 12.6274C30.5904 12.4278 30.5488 12.2129 30.5491 11.9957V11.942C30.5491 11.4763 30.7291 11.0565 31.02 10.7537C31.1622 10.5966 31.3331 10.4716 31.5225 10.3862C31.712 10.3009 31.9158 10.257 32.1218 10.2573H32.1727C32.6145 10.2573 33.0127 10.447 33.3 10.7537C33.5909 11.0565 33.7709 11.4763 33.7709 11.942V11.9823V11.9804V11.9938C33.7712 12.2109 33.7296 12.4259 33.6486 12.6255C33.5677 12.8252 33.4491 13.0054 33.3 13.1553C33.1528 13.3135 32.9771 13.4391 32.7832 13.5247C32.5893 13.6103 32.3811 13.6541 32.1709 13.6536H32.1345H32.1364H32.1345ZM32.5818 35.243C32.5149 35.2771 32.4416 35.2948 32.3673 35.2947H32.1C31.5491 35.2947 31.0509 35.0551 30.6945 34.668C30.5059 34.4755 30.3561 34.2449 30.2539 33.9901C30.1518 33.7352 30.0994 33.4612 30.1 33.1845V33.1059C30.1 32.5347 30.3291 32.021 30.6945 31.6607L30.6964 31.6588C31.0564 31.287 31.5509 31.057 32.0964 31.057H32.1364H32.1345H32.1727C32.6491 31.057 33.0855 31.2352 33.4273 31.5304L33.4236 31.5285C33.7655 31.8121 34.0109 32.2089 34.1145 32.665L34.1164 32.6785V32.6995C34.1164 32.7839 34.1255 32.8663 34.1418 32.9468L34.14 32.9391C34.1564 33.0024 34.1655 33.0733 34.1655 33.148V33.1883C34.1655 33.6905 33.9964 34.1505 33.7164 34.5108L33.7182 34.507C33.4364 34.875 33.0436 35.1395 32.5927 35.2391L32.58 35.241L32.5818 35.243Z" fill="#9FEAF9"/>
</g>
<defs>
<clipPath id="clip0_625_612">
<rect width="40" height="46" fill="white" transform="translate(12 9)"/>
</clipPath>
</defs>
</svg>
