<svg width="64" height="64" viewBox="0 0 64 64" fill="none" xmlns="http://www.w3.org/2000/svg">
<circle cx="32" cy="32" r="32" fill="black"/>
<path d="M26.75 44.9998C29.372 44.9998 31.5 43.1332 31.5 40.8332V36.6665H26.75C24.128 36.6665 22 38.5332 22 40.8332C22 43.1332 24.128 44.9998 26.75 44.9998Z" fill="#0ACF83"/>
<path d="M22 32.5002C22 30.2002 24.128 28.3335 26.75 28.3335H31.5V36.6668H26.75C24.128 36.6668 22 34.8002 22 32.5002Z" fill="#A259FF"/>
<path d="M22 24.1667C22 21.8667 24.128 20 26.75 20H31.5V28.3333H26.75C24.128 28.3333 22 26.4667 22 24.1667Z" fill="#F24E1E"/>
<path d="M31.5 20H36.25C38.872 20 41 21.8667 41 24.1667C41 26.4667 38.872 28.3333 36.25 28.3333H31.5V20Z" fill="#FF7262"/>
<path d="M41 32.5002C41 34.8002 38.872 36.6668 36.25 36.6668C33.628 36.6668 31.5 34.8002 31.5 32.5002C31.5 30.2002 33.628 28.3335 36.25 28.3335C38.872 28.3335 41 30.2002 41 32.5002Z" fill="#1ABCFE"/>
</svg>
