<svg width="64" height="64" viewBox="0 0 64 64" fill="none" xmlns="http://www.w3.org/2000/svg">
<circle cx="32" cy="32" r="32" fill="white"/>
<g clip-path="url(#clip0_623_716)">
<path d="M51.2451 30.2176L33.7801 12.7551C33.541 12.5159 33.257 12.3261 32.9445 12.1966C32.632 12.0671 32.2971 12.0005 31.9588 12.0005C31.6206 12.0005 31.2856 12.0671 30.9731 12.1966C30.6606 12.3261 30.3767 12.5159 30.1376 12.7551L26.5126 16.3801L31.1126 20.9801C31.6551 20.7949 32.2387 20.7659 32.7969 20.8965C33.3551 21.0271 33.8654 21.312 34.2694 21.7186C34.6735 22.1253 34.9551 22.6373 35.082 23.1964C35.209 23.7554 35.1763 24.3388 34.9876 24.8801L39.4201 29.3151C40.0759 29.0842 40.7907 29.0835 41.447 29.3132C42.1032 29.5428 42.6617 29.989 43.0304 30.5784C43.3992 31.1678 43.5563 31.8652 43.4758 32.5557C43.3953 33.2463 43.082 33.8889 42.5876 34.3776C42.087 34.8812 41.4272 35.1955 40.7207 35.2666C40.0142 35.3377 39.305 35.1613 38.7141 34.7676C38.1232 34.3739 37.6874 33.7872 37.481 33.1078C37.2746 32.4285 37.3105 31.6985 37.5826 31.0426L33.4501 26.9076V37.7901C34.0782 38.1011 34.5808 38.6179 34.8741 39.2545C35.1674 39.891 35.2337 40.6089 35.0618 41.2884C34.89 41.9679 34.4905 42.568 33.9299 42.9886C33.3693 43.4093 32.6814 43.6251 31.981 43.6001C31.2805 43.5751 30.6098 43.3107 30.0806 42.8512C29.5515 42.3916 29.1958 41.7645 29.0729 41.0745C28.95 40.3845 29.0673 39.6732 29.4052 39.0591C29.7432 38.4451 30.2814 37.9655 30.9301 37.7001V26.7176C30.5558 26.5643 30.2156 26.3383 29.929 26.0529C29.6425 25.7674 29.4153 25.428 29.2605 25.0543C29.1057 24.6806 29.0264 24.28 29.0272 23.8755C29.028 23.4711 29.1088 23.0707 29.2651 22.6976L24.7326 18.1626L12.7576 30.1376C12.5183 30.3768 12.3285 30.6607 12.1991 30.9732C12.0696 31.2857 12.0029 31.6206 12.0029 31.9589C12.0029 32.2971 12.0696 32.6321 12.1991 32.9446C12.3285 33.2571 12.5183 33.541 12.7576 33.7801L30.2226 51.2451C30.4617 51.4844 30.7456 51.6742 31.0581 51.8037C31.3706 51.9331 31.7056 51.9998 32.0438 51.9998C32.3821 51.9998 32.717 51.9331 33.0295 51.8037C33.342 51.6742 33.626 51.4844 33.8651 51.2451L51.2476 33.8626C51.7301 33.3794 52.0012 32.7243 52.0012 32.0414C52.0012 31.3584 51.7301 30.7034 51.2476 30.2201" fill="#F1502F"/>
</g>
<defs>
<clipPath id="clip0_623_716">
<rect width="40" height="40" fill="white" transform="translate(12 12)"/>
</clipPath>
</defs>
</svg>
