<svg width="64" height="64" viewBox="0 0 64 64" fill="none" xmlns="http://www.w3.org/2000/svg">
<circle cx="32" cy="32" r="32" fill="#F1662A"/>
<path d="M19.3771 48.0013L16.5684 16.5H47.4309L44.6184 47.9963L31.9809 51.5L19.3771 48.0013Z" fill="#E44F26"/>
<path d="M32 48.8224L42.2125 45.9912L44.615 19.0762H32V48.8224Z" fill="#F1662A"/>
<path d="M32 30.759H26.8875L26.535 26.8027H32V22.939H22.3125L22.405 23.9765L23.3538 34.6227H32V30.759ZM32 40.7927L31.9825 40.7977L27.68 39.6365L27.405 36.5552H23.5262L24.0675 42.6202L31.9825 44.8177L32 44.8127V40.7927Z" fill="#EBEBEB"/>
<path d="M31.9863 30.759V34.6227H36.7438L36.2963 39.634L31.9863 40.7965V44.8165L39.9076 42.6202L39.9651 41.9677L40.8726 31.7965L40.9676 30.759H31.9863ZM31.9863 22.939V26.8027H41.3188L41.3963 25.9352L41.5726 23.9765L41.6651 22.939H31.9863Z" fill="white"/>
</svg>
