<svg width="64" height="64" viewBox="0 0 64 64" fill="none" xmlns="http://www.w3.org/2000/svg">
<g clip-path="url(#clip0_623_760)">
<circle cx="32" cy="32" r="32" fill="white"/>
<path d="M24.9315 45.3329C24.9315 45.3329 23.024 46.3754 26.2891 46.7282C30.2448 47.1523 32.2664 47.0916 36.6256 46.3161C36.6256 46.3161 37.7717 46.9914 39.3721 47.5765C29.6002 51.5127 17.2561 47.3484 24.9315 45.3329ZM23.7374 40.1963C23.7374 40.1963 21.5979 41.6848 24.8655 42.0024C29.091 42.4121 32.4279 42.4456 38.2023 41.4006C38.2023 41.4006 39.0009 42.1616 40.2568 42.5778C28.4418 45.8249 15.2821 42.8339 23.7374 40.1963Z" fill="#5382A1"/>
<path d="M33.8042 31.4832C36.2121 34.0886 33.1716 36.4332 33.1716 36.4332C33.1716 36.4332 39.2854 33.4669 36.4776 29.7523C33.8552 26.2884 31.8441 24.567 42.7312 18.6328C42.7312 18.6328 25.6421 22.6441 33.8042 31.4831" fill="#E76F00"/>
<path d="M46.7279 49.1325C46.7279 49.1325 48.1396 50.2256 45.1732 51.0713C39.5327 52.6773 21.6967 53.1622 16.7419 51.1353C14.9608 50.4072 18.3009 49.3965 19.3515 49.1844C20.4472 48.961 21.0735 49.0028 21.0735 49.0028C19.0927 47.6912 8.27046 51.5778 15.5764 52.6908C35.5004 55.7275 51.8959 51.3234 46.7279 49.1325ZM25.8484 34.8746C25.8484 34.8746 16.776 36.9 22.6357 37.6353C25.1098 37.9466 30.0419 37.8763 34.6361 37.5144C38.3908 37.2169 42.1609 36.5839 42.1609 36.5839C42.1609 36.5839 40.837 37.1168 39.8792 37.7315C30.6662 40.0088 12.8683 38.9494 17.9921 36.6199C22.3253 34.6513 25.8485 34.8746 25.8485 34.8746H25.8484ZM42.1234 43.4246C51.4891 38.8506 47.1588 34.4552 44.1363 35.0474C43.3955 35.1922 43.0652 35.3177 43.0652 35.3177C43.0652 35.3177 43.3402 34.9129 43.8655 34.7377C49.8447 32.7619 54.4433 40.5648 41.9353 43.6551C41.9353 43.6552 42.0802 43.5335 42.1234 43.4246Z" fill="#5382A1"/>
<path d="M36.4776 9.05043C36.4776 9.05043 41.6643 13.927 31.5581 21.4254C23.4541 27.4406 29.7102 30.8702 31.5548 34.7888C26.8243 30.7775 23.3527 27.2462 25.6818 23.9598C29.1001 19.1352 38.5702 16.7962 36.4776 9.05029" fill="#E76F00"/>
<path d="M26.7692 55.8184C35.7589 56.3593 49.5635 55.5184 49.8905 51.5205C49.8905 51.5205 49.2621 53.0362 42.461 54.2397C34.7881 55.5967 25.3248 55.4383 19.7119 54.5686C19.7121 54.5686 20.8609 55.4624 26.7694 55.8184" fill="#5382A1"/>
</g>
<defs>
<clipPath id="clip0_623_760">
<rect width="64" height="64" fill="white"/>
</clipPath>
</defs>
</svg>
