<svg width="64" height="64" viewBox="0 0 64 64" fill="none" xmlns="http://www.w3.org/2000/svg">
<path d="M18 18H46V46H18V18Z" fill="#F5DE19"/>
<path d="M36.8091 39.8749C37.0476 40.3595 37.4183 40.7668 37.8783 41.0499C38.3383 41.333 38.869 41.4803 39.4091 41.4749C40.4991 41.4749 41.1961 40.9299 41.1961 40.1749C41.1961 39.2749 40.4801 38.9529 39.2801 38.4279L38.6221 38.1459C36.7221 37.3369 35.4621 36.3239 35.4621 34.1819C35.4621 32.2089 36.9621 30.7059 39.3151 30.7059C40.0768 30.6509 40.8378 30.8214 41.5033 31.1961C42.1687 31.5708 42.7091 32.1331 43.0571 32.8129L41.0001 34.1279C40.8661 33.7908 40.6328 33.5024 40.3312 33.301C40.0295 33.0995 39.6738 32.9945 39.3111 32.9999C39.1528 32.9841 38.993 33.0014 38.8418 33.0507C38.6907 33.1 38.5514 33.1803 38.433 33.2864C38.3145 33.3925 38.2195 33.5222 38.1539 33.667C38.0883 33.8119 38.0536 33.9689 38.0521 34.1279C38.0521 34.9169 38.5411 35.2369 39.6701 35.7279L40.3281 36.0099C42.5641 36.9689 43.8281 37.9459 43.8281 40.1429C43.8281 42.5119 41.9671 43.8099 39.4681 43.8099C38.4944 43.8719 37.5235 43.6509 36.6727 43.1734C35.8218 42.6959 35.1274 41.9824 34.6731 41.1189L36.8091 39.8749ZM27.5141 40.1029C27.9271 40.8359 28.3031 41.4559 29.2071 41.4559C30.0711 41.4559 30.6171 41.1179 30.6171 39.8029V30.8559H33.2481V39.8379C33.2481 42.5619 31.6481 43.8019 29.3191 43.8019C28.4958 43.8469 27.6782 43.6417 26.9738 43.2134C26.2693 42.785 25.7109 42.1535 25.3721 41.4019L27.5141 40.1029Z" fill="black"/>
<circle cx="32" cy="32" r="32" fill="white"/>
<path d="M34.1678 21.335C33.1212 18.7883 33.2679 15.9233 34.7795 13.6183L35.9095 12C33.8195 15.9167 35.8095 20.7267 39.0095 23.2483C39.8658 23.9185 40.8204 24.4526 41.8395 24.8317C42.1128 24.9317 42.4228 25.0383 42.7062 25.11C46.2828 26.01 49.1979 25.3883 50.9329 22.795C50.8795 22.875 50.8112 23.0017 50.7245 23.1617C49.9512 24.595 47.6879 28.79 41.1245 27.4733C40.9995 27.4483 40.8795 27.4067 40.7595 27.3683L40.6528 27.3317L40.5762 27.3067C40.5408 27.2944 40.5053 27.2828 40.4695 27.2717C40.3723 27.2382 40.2756 27.2032 40.1795 27.1667C37.5379 26.16 35.2728 24.04 34.1678 21.335Z" fill="#0868AC"/>
<path d="M25.5337 16.9431C22.972 20.7681 23.112 25.8898 25.1103 29.9365C25.4798 30.6895 25.9043 31.4142 26.3803 32.1048C26.7287 32.6265 27.112 33.2048 27.5603 33.6081C27.7453 33.8198 27.9387 34.0248 28.1353 34.2265L28.2487 34.3431L28.287 34.3815C28.486 34.5826 28.6899 34.7788 28.8987 34.9698L28.9003 34.9715L28.9037 34.9748C29.1556 35.2027 29.414 35.4234 29.6787 35.6365L29.7453 35.6898C29.9787 35.8765 30.217 36.0598 30.462 36.2348L30.472 36.2415L30.4837 36.2498C30.562 36.3065 30.642 36.3615 30.722 36.4148L30.8103 36.4748C30.8626 36.5094 30.9143 36.545 30.9653 36.5815C31.1403 36.6981 31.317 36.8098 31.497 36.9198L31.547 36.9481L31.572 36.9648C31.765 37.0799 31.9601 37.1916 32.157 37.2998L32.2087 37.3265L32.2753 37.3631C32.362 37.4098 32.4487 37.4581 32.5387 37.5031L32.5887 37.5281C32.8465 37.6594 33.1077 37.7839 33.372 37.9015L33.4253 37.9231C33.6734 38.0324 33.924 38.1357 34.177 38.2331L34.227 38.2515C34.3987 38.3181 34.5703 38.3781 34.7437 38.4381L34.8303 38.4681L34.977 38.5165C35.042 38.5365 35.107 38.5598 35.1703 38.5815C35.352 38.6448 35.5337 38.7065 35.7237 38.7398C48.947 41.0131 52.0003 30.4465 52.0003 30.4465C49.2487 34.5598 43.9187 36.5231 38.232 34.9898C37.9802 34.921 37.7301 34.8459 37.482 34.7648C37.4148 34.7441 37.3482 34.7219 37.282 34.6981L37.257 34.6898C37.0814 34.6309 36.9069 34.5686 36.7337 34.5031L36.7287 34.4998C36.4411 34.391 36.1565 34.2743 35.8753 34.1498L35.782 34.1081C35.4543 33.96 35.1319 33.8004 34.8153 33.6298L34.7453 33.5931L34.5453 33.4865C34.3627 33.3844 34.1821 33.2789 34.0037 33.1698C33.6511 32.9545 33.3065 32.7266 32.9703 32.4865C32.7276 32.3112 32.4892 32.1301 32.2553 31.9431L32.197 31.8948C32.1629 31.8672 32.1291 31.8395 32.0953 31.8115C29.6053 29.7715 27.632 26.9831 26.6953 23.8231C25.712 20.5431 25.9237 16.8631 27.627 13.8765L25.5337 16.9431Z" fill="#0868AC"/>
<path d="M14.5404 21.3949C11.0004 26.6782 11.4404 33.5532 14.1454 39.1666C14.1954 39.2749 14.2504 39.3816 14.3037 39.4866L14.3437 39.5666L14.3937 39.6649C14.4356 39.7523 14.4801 39.8384 14.527 39.9232L14.5487 39.9649L14.6654 40.1816L14.6904 40.2266C14.7737 40.3799 14.8604 40.5332 14.9487 40.6866L14.977 40.7366C15.1106 40.9695 15.2501 41.199 15.3954 41.4249L15.4254 41.4749L15.5237 41.6299C15.6637 41.8466 15.807 42.0649 15.957 42.2799V42.2816C15.9606 42.2868 15.9645 42.2918 15.9687 42.2966L16.0087 42.3516L16.042 42.3982C16.172 42.5816 16.3037 42.7649 16.4387 42.9449L16.5887 43.1416C16.9154 43.5649 17.2533 43.9795 17.602 44.3849L17.612 44.3966L17.6204 44.4049L17.632 44.4182C17.9856 44.8166 18.3514 45.204 18.7287 45.5799L18.7787 45.6299L18.897 45.7465C19.0859 45.9312 19.2782 46.1123 19.4737 46.2899L19.5287 46.3399L19.572 46.3766C19.7806 46.5628 19.9918 46.7461 20.2054 46.9265L20.2987 47.0049C20.4404 47.1216 20.5837 47.2382 20.7287 47.3516L20.957 47.5332C21.117 47.6549 21.277 47.7749 21.4387 47.8916L21.4654 47.9116L21.6154 48.0216L21.662 48.0549C21.8087 48.1616 21.957 48.2616 22.107 48.3616L22.1304 48.3782C22.1976 48.4235 22.2643 48.4696 22.3304 48.5166C22.6086 48.6992 22.8903 48.8764 23.1754 49.0482L23.2654 49.1016C23.5177 49.2506 23.7728 49.3951 24.0304 49.5349L24.1187 49.5832L24.217 49.6366C24.3154 49.6899 24.412 49.7432 24.512 49.7949L24.5537 49.8149L24.6037 49.8399L24.6604 49.8682C24.6937 49.8849 24.7287 49.9016 24.7637 49.9216C24.9704 50.0232 25.177 50.1232 25.387 50.2216L25.4654 50.2566L25.5187 50.2816C26.0395 50.5187 26.5694 50.7356 27.107 50.9315L27.1237 50.9366L27.1937 50.9632C27.5737 51.0999 27.9571 51.2266 28.3437 51.3432C28.537 51.4082 28.732 51.4715 28.932 51.5099C46.0604 54.7532 51.0354 40.8266 51.0354 40.8266C46.857 46.4766 39.4404 47.9682 32.412 46.3082C32.1476 46.2441 31.8862 46.1679 31.6287 46.0799L31.432 46.0182C31.1787 45.9382 30.927 45.8516 30.677 45.7632L30.5737 45.7249C30.3487 45.6416 30.1287 45.5582 29.907 45.4682L29.7204 45.3916C29.479 45.2927 29.2396 45.1893 29.002 45.0816L28.9254 45.0482C28.6996 44.9434 28.4751 44.8356 28.252 44.7249L28.1837 44.6882C28.1481 44.6712 28.1125 44.654 28.077 44.6366L27.7204 44.4482L27.607 44.3882C27.57 44.368 27.5327 44.348 27.4954 44.3282L27.2954 44.2182C27.1054 44.1132 26.9187 44.0016 26.732 43.8899L26.6604 43.8482L26.5437 43.7816C26.2536 43.6026 25.9669 43.4181 25.6837 43.2282L25.612 43.1782C24.9007 42.704 24.2189 42.1869 23.5704 41.6299C23.3722 41.4623 23.1767 41.2918 22.9837 41.1182L22.957 41.0932C22.7037 40.8602 22.4548 40.6223 22.2104 40.3799C22.0692 40.2404 21.9303 40.0988 21.7937 39.9549L21.737 39.8982C21.5212 39.6726 21.31 39.4426 21.1037 39.2082L21.0937 39.1982L21.0904 39.1932C20.9137 38.9932 20.7404 38.7866 20.5704 38.5799L20.4337 38.4116C20.2592 38.1952 20.0887 37.9757 19.922 37.7532C19.7754 37.5532 19.6304 37.3566 19.4887 37.1549C15.5887 31.6316 14.187 24.0115 17.3054 17.7549L14.5404 21.3949Z" fill="#0868AC"/>
</svg>
