<svg width="64" height="64" viewBox="0 0 64 64" fill="none" xmlns="http://www.w3.org/2000/svg">
<path d="M18 18H46V46H18V18Z" fill="#F5DE19"/>
<path d="M36.8091 39.8749C37.0476 40.3595 37.4183 40.7668 37.8783 41.0499C38.3383 41.333 38.869 41.4803 39.4091 41.4749C40.4991 41.4749 41.1961 40.9299 41.1961 40.1749C41.1961 39.2749 40.4801 38.9529 39.2801 38.4279L38.6221 38.1459C36.7221 37.3369 35.4621 36.3239 35.4621 34.1819C35.4621 32.2089 36.9621 30.7059 39.3151 30.7059C40.0768 30.6509 40.8378 30.8214 41.5033 31.1961C42.1687 31.5708 42.7091 32.1331 43.0571 32.8129L41.0001 34.1279C40.8661 33.7908 40.6328 33.5024 40.3312 33.301C40.0295 33.0995 39.6738 32.9945 39.3111 32.9999C39.1528 32.9841 38.993 33.0014 38.8418 33.0507C38.6907 33.1 38.5514 33.1803 38.433 33.2864C38.3145 33.3925 38.2195 33.5222 38.1539 33.667C38.0883 33.8119 38.0536 33.9689 38.0521 34.1279C38.0521 34.9169 38.5411 35.2369 39.6701 35.7279L40.3281 36.0099C42.5641 36.9689 43.8281 37.9459 43.8281 40.1429C43.8281 42.5119 41.9671 43.8099 39.4681 43.8099C38.4944 43.8719 37.5235 43.6509 36.6727 43.1734C35.8218 42.6959 35.1274 41.9824 34.6731 41.1189L36.8091 39.8749ZM27.5141 40.1029C27.9271 40.8359 28.3031 41.4559 29.2071 41.4559C30.0711 41.4559 30.6171 41.1179 30.6171 39.8029V30.8559H33.2481V39.8379C33.2481 42.5619 31.6481 43.8019 29.3191 43.8019C28.4958 43.8469 27.6782 43.6417 26.9738 43.2134C26.2693 42.785 25.7109 42.1535 25.3721 41.4019L27.5141 40.1029Z" fill="black"/>
<circle cx="32" cy="32" r="32" fill="#F5DE19"/>
<path d="M14.5 14.5H49.5V49.5H14.5V14.5Z" fill="#F5DE19"/>
<path d="M38.0111 41.844C38.3093 42.4497 38.7726 42.9589 39.3476 43.3127C39.9227 43.6666 40.586 43.8508 41.2611 43.844C42.6236 43.844 43.4948 43.1627 43.4948 42.219C43.4948 41.094 42.5998 40.6915 41.0998 40.0352L40.2773 39.6827C37.9023 38.6715 36.3273 37.4052 36.3273 34.7277C36.3273 32.2615 38.2023 30.3827 41.1436 30.3827C42.0957 30.314 43.047 30.5271 43.8788 30.9955C44.7107 31.4638 45.3862 32.1667 45.8211 33.0165L43.2498 34.6602C43.0824 34.2389 42.7908 33.8784 42.4137 33.6266C42.0367 33.3748 41.592 33.2435 41.1386 33.2502C40.9408 33.2304 40.741 33.2521 40.5521 33.3137C40.3631 33.3754 40.189 33.4757 40.041 33.6084C39.8929 33.741 39.7741 33.9031 39.6921 34.0842C39.6102 34.2653 39.5668 34.4615 39.5648 34.6602C39.5648 35.6465 40.1761 36.0465 41.5873 36.6602L42.4098 37.0127C45.2048 38.2115 46.7848 39.4327 46.7848 42.179C46.7848 45.1402 44.4586 46.7627 41.3348 46.7627C40.1177 46.8403 38.9042 46.564 37.8406 45.9671C36.7771 45.3702 35.909 44.4783 35.3411 43.399L38.0111 41.844ZM26.3923 42.129C26.9086 43.0452 27.3786 43.8202 28.5086 43.8202C29.5886 43.8202 30.2711 43.3977 30.2711 41.754V30.5702H33.5598V41.7977C33.5598 45.2027 31.5598 46.7527 28.6486 46.7527C27.6195 46.809 26.5975 46.5525 25.717 46.0171C24.8364 45.4817 24.1384 44.6923 23.7148 43.7527L26.3923 42.129Z" fill="black"/>
</svg>
