<svg width="32" height="32" viewBox="0 0 32 32" fill="none" xmlns="http://www.w3.org/2000/svg">
<path d="M16 9.33337C15.4477 9.33337 15 9.78109 15 10.3334V15C15 15.5523 15.4477 16 16 16C16.5523 16 17 15.5523 17 15V10.3334C17 9.78109 16.5523 9.33337 16 9.33337Z" fill="#333333"/>
<path fill-rule="evenodd" clip-rule="evenodd" d="M8 10.6667C8 6.98477 10.9848 4 14.6667 4H17.3333C21.0152 4 24 6.98477 24 10.6667V21.3333C24 25.0152 21.0152 28 17.3333 28H14.6667C10.9848 28 8 25.0152 8 21.3333V10.6667ZM14.6667 6H17.3333C19.9107 6 22 8.08933 22 10.6667V21.3333C22 23.9107 19.9107 26 17.3333 26H14.6667C12.0893 26 10 23.9107 10 21.3333V10.6667C10 8.08933 12.0893 6 14.6667 6Z" fill="#333333"/>
</svg>
