<svg width="64" height="64" viewBox="0 0 64 64" fill="none" xmlns="http://www.w3.org/2000/svg">
<circle cx="32" cy="32" r="32" fill="white"/>
<path d="M39.3417 21.1683C39.15 21.1683 39.02 21.1917 38.885 21.2233V21.245H38.9083C38.9983 21.4183 39.1517 21.545 39.265 21.7C39.355 21.8783 39.4317 22.0567 39.5217 22.2333L39.545 22.2083C39.7017 22.0983 39.7783 21.9217 39.7783 21.6533C39.7117 21.575 39.7017 21.4967 39.645 21.42C39.5783 21.3083 39.435 21.2533 39.345 21.165L39.3417 21.1683ZM21.6167 43.1583H20.0717C20.0282 40.703 19.8781 38.2507 19.6217 35.8083H19.6083L17.2583 43.1583H16.0833L13.75 35.8083H13.7333C13.5508 38.2545 13.4424 40.7056 13.4083 43.1583H12C12.0917 39.8817 12.32 36.8083 12.6833 33.9417H14.6L16.825 40.715H16.8383L19.0833 33.9417H20.9083C21.3117 37.3 21.5483 40.375 21.6217 43.1583H21.6167ZM28.3117 36.3583C27.6817 39.7667 26.8517 42.2467 25.825 43.7917C25.0217 44.985 24.1417 45.58 23.1867 45.58C22.9317 45.58 22.62 45.5033 22.2433 45.35V44.5267C22.4267 44.555 22.6433 44.57 22.8867 44.57C23.3333 44.57 23.6917 44.445 23.965 44.2C24.2933 43.9 24.4567 43.5633 24.4567 43.1917C24.4567 42.9333 24.3283 42.4083 24.0733 41.6183L22.3833 36.3583H23.9L25.1117 40.2917C25.385 41.185 25.5 41.8083 25.4533 42.1633C26.12 40.39 26.5833 38.4517 26.845 36.3583H28.3117ZM48.8533 43.1583H44.47V33.9417H45.945V42.025H48.8533V43.1583ZM43.32 43.3833L41.6267 42.55C41.7767 42.4233 41.9217 42.2867 42.0517 42.1333C42.7733 41.29 43.1317 40.0367 43.1317 38.3783C43.1317 35.3283 41.935 33.8017 39.54 33.8017C38.3667 33.8017 37.45 34.1883 36.79 34.9633C36.0733 35.81 35.7133 37.0567 35.7133 38.705C35.7133 40.325 36.03 41.515 36.67 42.2717C37.2533 42.955 38.1317 43.2967 39.3083 43.2967C39.7483 43.2967 40.1517 43.2417 40.5167 43.1333L42.725 44.42L43.325 43.3833H43.32ZM37.8333 41.3133C37.4583 40.7133 37.2717 39.7467 37.2717 38.42C37.2717 36.0983 37.9783 34.9367 39.3883 34.9367C40.1267 34.9367 40.6717 35.215 41.0167 35.77C41.39 36.3733 41.5767 37.33 41.5767 38.6417C41.5767 40.9817 40.87 42.155 39.46 42.155C38.7183 42.155 38.1767 41.8767 37.83 41.3217L37.8333 41.3133ZM35.07 40.605C35.07 41.3883 34.7833 42.0317 34.21 42.5317C33.6367 43.0317 32.8717 43.2817 31.9033 43.2817C30.9983 43.2817 30.13 42.995 29.2817 42.4233L29.6767 41.63C30.4067 41.9967 31.065 42.1767 31.66 42.1767C32.2133 42.1767 32.6483 42.055 32.965 41.81C33.1233 41.6907 33.2511 41.5356 33.338 41.3575C33.4249 41.1794 33.4684 40.9832 33.465 40.785C33.465 40.235 33.0817 39.7683 32.385 39.3767C31.7383 39.0217 30.4467 38.2817 30.4467 38.2817C29.7433 37.77 29.3933 37.2217 29.3933 36.32C29.3933 35.57 29.655 34.97 30.1767 34.5117C30.7017 34.0483 31.3767 33.82 32.21 33.82C33.0633 33.82 33.8433 34.0467 34.5433 34.5033L34.1883 35.2967C33.629 35.051 33.0259 34.9206 32.415 34.9133C31.9433 34.9133 31.5783 35.0267 31.325 35.2567C31.1964 35.3632 31.0928 35.4966 31.0214 35.6475C30.95 35.7984 30.9125 35.9631 30.9117 36.13C30.9117 36.6767 31.3017 37.1467 32.0217 37.5467C32.6767 37.905 34 38.6633 34 38.6633C34.7217 39.1717 35.08 39.7133 35.08 40.61L35.07 40.605ZM50.7067 30.8517C49.815 30.8283 49.1233 30.9183 48.545 31.165C48.3783 31.2317 48.1117 31.2317 48.0883 31.4433C48.18 31.5317 48.1933 31.6767 48.2717 31.8C48.405 32.0233 48.635 32.3217 48.8483 32.4783C49.0817 32.6617 49.315 32.8383 49.56 32.995C49.9933 33.2617 50.485 33.42 50.91 33.6883C51.1517 33.845 51.3983 34.0433 51.6433 34.21C51.765 34.2933 51.8433 34.4433 52 34.4967V34.4633C51.9233 34.3633 51.9 34.2183 51.825 34.1067C51.7133 33.995 51.6017 33.895 51.4917 33.785C51.1644 33.3538 50.7739 32.9745 50.3333 32.66C49.9767 32.4167 49.1967 32.0767 49.05 31.6683L49.0283 31.645C49.2717 31.6233 49.5617 31.535 49.795 31.4683C50.1733 31.3683 50.52 31.39 50.9117 31.2917C51.0883 31.2467 51.2667 31.1917 51.445 31.135V31.035C51.245 30.835 51.095 30.5633 50.8883 30.3767C50.3115 29.8725 49.6963 29.4138 49.0483 29.005C48.6983 28.7817 48.255 28.6383 47.8867 28.4483C47.7533 28.3817 47.53 28.3483 47.4533 28.2367C47.2533 27.9933 47.1367 27.67 46.995 27.38C46.6677 26.7452 46.3636 26.0986 46.0833 25.4417C45.8833 25.005 45.7617 24.57 45.5167 24.17C44.3667 22.275 43.1217 21.1267 41.2067 20.0033C40.795 19.77 40.3017 19.67 39.78 19.5467C39.5017 19.5333 39.2233 19.5133 38.9467 19.5017C38.7633 19.4233 38.5867 19.2117 38.43 19.11C37.7967 18.71 36.1567 17.8433 35.69 18.99C35.39 19.7133 36.135 20.4267 36.3933 20.7933C36.585 21.0483 36.8267 21.34 36.96 21.6267C37.0383 21.82 37.06 22.0183 37.1383 22.22C37.315 22.71 37.4833 23.2567 37.7167 23.715C37.8383 23.9483 37.9717 24.1933 38.1283 24.4033C38.2183 24.525 38.3717 24.5817 38.4067 24.7817C38.25 25.0083 38.24 25.3383 38.15 25.615C37.75 26.8767 37.9067 28.4367 38.4733 29.365C38.6517 29.6417 39.0767 30.255 39.645 30.02C40.145 29.82 40.035 29.1867 40.1783 28.6283C40.2117 28.495 40.19 28.4067 40.2583 28.3167V28.3417C40.415 28.655 40.5717 28.9533 40.715 29.2667C41.0583 29.8133 41.6583 30.38 42.16 30.7583C42.4267 30.9583 42.6383 31.305 42.9717 31.4283V31.395H42.9467C42.875 31.2983 42.78 31.2517 42.69 31.1733C42.4787 30.9665 42.2837 30.7436 42.1067 30.5067C41.6371 29.865 41.2207 29.1861 40.8617 28.4767C40.6783 28.1267 40.525 27.75 40.3783 27.405C40.3117 27.2717 40.3117 27.0717 40.2 27.005C40.0333 27.2483 39.7883 27.46 39.6667 27.76C39.455 28.24 39.4333 28.83 39.3533 29.4433C39.3083 29.455 39.33 29.4433 39.3083 29.4667C38.9517 29.38 38.83 29.01 38.6967 28.7C38.3633 27.9083 38.3083 26.6367 38.5967 25.725C38.675 25.4917 39.0083 24.755 38.875 24.5317C38.805 24.32 38.585 24.1983 38.4633 24.0267C38.3068 23.8032 38.1728 23.5649 38.0633 23.315C37.7967 22.6917 37.6633 22.0017 37.3733 21.3783C37.24 21.09 37.0067 20.7883 36.8167 20.5233C36.605 20.2233 36.3717 20.0117 36.2033 19.6567C36.1483 19.535 36.07 19.3333 36.1583 19.2C36.1817 19.11 36.2283 19.075 36.315 19.05C36.4617 18.93 36.8733 19.0867 37.0183 19.1533C37.43 19.32 37.7767 19.4767 38.1217 19.71C38.2783 19.82 38.4467 20.0317 38.6467 20.0867H38.88C39.2367 20.165 39.6383 20.11 39.9717 20.2083C40.5633 20.3983 41.0967 20.675 41.575 20.975C43.0489 21.9165 44.2477 23.2309 45.05 24.785C45.1833 25.0417 45.2417 25.2767 45.3633 25.5433C45.5967 26.0933 45.885 26.6483 46.1217 27.18C46.355 27.705 46.58 28.24 46.915 28.675C47.0817 28.9083 47.7517 29.03 48.0517 29.1517C48.2733 29.2517 48.6183 29.3433 48.8183 29.465C49.2017 29.6983 49.575 29.965 49.935 30.2217C50.1183 30.3483 50.6733 30.6267 50.7067 30.8517V30.8517Z" fill="black"/>
</svg>
