<svg width="64" height="64" viewBox="0 0 64 64" fill="none" xmlns="http://www.w3.org/2000/svg">
<path d="M18 18H46V46H18V18Z" fill="#F5DE19"/>
<path d="M36.8091 39.8749C37.0476 40.3595 37.4183 40.7668 37.8783 41.0499C38.3383 41.333 38.869 41.4803 39.4091 41.4749C40.4991 41.4749 41.1961 40.9299 41.1961 40.1749C41.1961 39.2749 40.4801 38.9529 39.2801 38.4279L38.6221 38.1459C36.7221 37.3369 35.4621 36.3239 35.4621 34.1819C35.4621 32.2089 36.9621 30.7059 39.3151 30.7059C40.0768 30.6509 40.8378 30.8214 41.5033 31.1961C42.1687 31.5708 42.7091 32.1331 43.0571 32.8129L41.0001 34.1279C40.8661 33.7908 40.6328 33.5024 40.3312 33.301C40.0295 33.0995 39.6738 32.9945 39.3111 32.9999C39.1528 32.9841 38.993 33.0014 38.8418 33.0507C38.6907 33.1 38.5514 33.1803 38.433 33.2864C38.3145 33.3925 38.2195 33.5222 38.1539 33.667C38.0883 33.8119 38.0536 33.9689 38.0521 34.1279C38.0521 34.9169 38.5411 35.2369 39.6701 35.7279L40.3281 36.0099C42.5641 36.9689 43.8281 37.9459 43.8281 40.1429C43.8281 42.5119 41.9671 43.8099 39.4681 43.8099C38.4944 43.8719 37.5235 43.6509 36.6727 43.1734C35.8218 42.6959 35.1274 41.9824 34.6731 41.1189L36.8091 39.8749ZM27.5141 40.1029C27.9271 40.8359 28.3031 41.4559 29.2071 41.4559C30.0711 41.4559 30.6171 41.1179 30.6171 39.8029V30.8559H33.2481V39.8379C33.2481 42.5619 31.6481 43.8019 29.3191 43.8019C28.4958 43.8469 27.6782 43.6417 26.9738 43.2134C26.2693 42.785 25.7109 42.1535 25.3721 41.4019L27.5141 40.1029Z" fill="black"/>
<circle cx="32" cy="32" r="32" fill="white"/>
<path d="M44.6374 33.965C43.5382 33.9664 42.4538 34.2178 41.4661 34.7C41.1569 34.1868 40.9181 33.6344 40.7561 33.0575C40.6631 32.6053 40.6416 32.1413 40.6924 31.6825C40.7992 31.1776 40.9378 30.6799 41.1074 30.1925C41.1011 30.1287 41.0311 29.8275 40.3274 29.8175C39.6236 29.8075 39.0174 29.9512 38.9524 30.1375C38.8302 30.4777 38.732 30.826 38.6586 31.18C38.0762 32.6169 37.3593 33.9955 36.5174 35.2975C36.0457 34.5243 35.8517 33.6133 35.9674 32.715C36.0742 32.2101 36.2128 31.7124 36.3824 31.225C36.3761 31.1612 36.3061 30.86 35.6024 30.85C34.8986 30.84 34.2924 30.9837 34.2274 31.17C34.1624 31.3562 34.0799 31.795 33.9336 32.2125C33.7874 32.63 32.0799 36.445 31.6324 37.4287C31.4024 37.9287 31.2036 38.3362 31.0636 38.6112C31.057 38.6291 31.0486 38.6463 31.0386 38.6625L30.8474 39.0275V39.0337C30.7511 39.2062 30.6486 39.3662 30.5974 39.3662C30.508 39.0091 30.5123 38.635 30.6099 38.28C30.8599 36.9562 31.4724 34.8987 31.4661 34.8275C31.4661 34.7887 31.5811 34.4312 31.0699 34.2462C30.9513 34.1898 30.8182 34.1715 30.6888 34.1939C30.5594 34.2163 30.4401 34.2783 30.3474 34.3712C30.3024 34.3712 30.2711 34.48 30.2711 34.48C30.2711 34.48 30.8274 32.1662 29.2099 32.1662C28.58 32.2929 27.9818 32.5443 27.4505 32.9056C26.9192 33.2669 26.4655 33.7308 26.1161 34.27C25.6811 34.5062 24.7549 35.0112 23.7636 35.555C23.3886 35.7662 22.9961 35.9775 22.6324 36.18C22.6074 36.155 22.5811 36.1225 22.5561 36.0975C20.5874 34 16.9686 32.52 17.1249 29.7137C17.1824 28.6912 17.5336 26.0062 24.0736 22.745C29.4561 20.0925 33.7399 20.8275 34.4811 22.4575C35.5424 24.785 32.1861 29.1062 26.6249 29.7325C26.0096 29.8573 25.3742 29.8423 24.7656 29.6884C24.1569 29.5346 23.5907 29.2459 23.1086 28.8437C22.8149 28.5237 22.7699 28.505 22.6611 28.5687C22.4824 28.665 22.5974 28.9525 22.6611 29.1187C22.8733 29.5027 23.1602 29.8402 23.505 30.1114C23.8498 30.3825 24.2455 30.5818 24.6686 30.6975C26.8564 31.1703 29.1374 30.9442 31.1899 30.0512C34.5649 28.7475 37.1899 25.1225 36.4199 22.0862C35.6461 19.005 30.5324 17.9887 25.6924 19.7112C22.6608 20.7313 19.8597 22.3381 17.4486 24.44C14.7824 26.9337 14.3611 29.1 14.5336 30.0087C15.1586 33.2312 19.5974 35.3275 21.3736 36.8837C21.2934 36.9294 21.2125 36.974 21.1311 37.0175C20.2424 37.4587 16.8549 39.23 16.0061 41.1025C15.0474 43.2275 16.1599 44.7462 16.8949 44.9512C18.0024 45.2164 19.165 45.129 20.2205 44.7015C21.276 44.2739 22.1716 43.5274 22.7824 42.5662C23.3025 41.769 23.6221 40.8579 23.7142 39.9105C23.8063 38.9631 23.668 38.0074 23.3111 37.125C23.3051 37.1107 23.2966 37.0976 23.2861 37.0862L23.9824 36.6775C24.4054 36.4274 24.8339 36.1865 25.2674 35.955C25.0072 36.7056 24.8544 37.4891 24.8136 38.2825C24.7253 39.4985 25.0974 40.7032 25.8561 41.6575C25.9716 41.7569 26.1056 41.8324 26.2504 41.8796C26.3953 41.9268 26.548 41.9448 26.6999 41.9325C27.4499 41.9325 27.7936 41.3075 28.1699 40.565C28.6299 39.6575 29.0449 38.6025 29.0449 38.6025C29.0449 38.6025 28.5274 41.4537 29.9336 41.4537C30.4449 41.4537 30.9624 40.7887 31.1936 40.4537V40.46L31.2324 40.3962L31.3149 40.2625V40.25C31.5199 39.8925 31.9799 39.08 32.6636 37.7312C33.5461 35.9925 34.3961 33.8187 34.3961 33.8187C34.4781 34.2965 34.5913 34.7683 34.7349 35.2312C34.9408 35.7924 35.1842 36.3391 35.4636 36.8675C35.2586 37.155 35.1311 37.315 35.1311 37.315L35.1374 37.3212C34.9711 37.5387 34.7924 37.775 34.5936 38.005C34.0023 38.6551 33.4537 39.3428 32.9511 40.0637C32.8765 40.1848 32.8508 40.3299 32.8794 40.4692C32.9079 40.6086 32.9886 40.7318 33.1049 40.8137C33.368 40.9507 33.668 41.0001 33.9611 40.955C34.4029 40.93 34.8374 40.8307 35.2461 40.6612C35.6411 40.5222 36.0138 40.3264 36.3524 40.08C36.7014 39.8382 36.9824 39.5106 37.1682 39.1288C37.3541 38.7471 37.4386 38.3239 37.4136 37.9C37.3743 37.366 37.2379 36.8437 37.0111 36.3587C37.0749 36.2687 37.1361 36.18 37.1961 36.09C37.9068 35.0292 38.5473 33.9231 39.1136 32.7787C39.1956 33.2565 39.3088 33.7283 39.4524 34.1912C39.6222 34.6762 39.8312 35.1465 40.0774 35.5975C39.2598 36.2265 38.6158 37.0533 38.2061 38C37.8036 39.1637 38.1161 39.6875 38.7061 39.8087C39.029 39.831 39.3518 39.7649 39.6399 39.6175C40.0635 39.4783 40.4625 39.2733 40.8224 39.01C41.2018 38.7861 41.5196 38.4713 41.7472 38.094C41.9748 37.7168 42.105 37.2888 42.1261 36.8487C42.0978 36.4095 41.9986 35.9776 41.8324 35.57C42.9113 35.1485 44.081 35.0141 45.2274 35.18C48.2699 35.5375 48.8711 37.4362 48.7561 38.2362C48.7022 38.5199 48.5882 38.7886 48.4217 39.0245C48.2553 39.2604 48.0403 39.4579 47.7911 39.6037C47.5799 39.7375 47.5099 39.7825 47.5286 39.8787C47.5536 40.02 47.6536 40.0125 47.8349 39.9875C48.2934 39.845 48.698 39.5668 48.9953 39.1897C49.2925 38.8125 49.4684 38.3542 49.4999 37.875C49.5961 36 47.8061 33.9437 44.6411 33.9625L44.6374 33.965ZM21.1624 41.875C20.1524 42.975 18.7461 43.39 18.1386 43.0387C17.4861 42.6637 17.7424 41.0387 18.9824 39.8737C19.7179 39.2116 20.513 38.6187 21.3574 38.1025C21.5049 38.0125 21.7224 37.885 21.9824 37.7275L22.0524 37.6887L22.2061 37.5925C22.4277 38.3347 22.4478 39.1226 22.2643 39.8751C22.0809 40.6277 21.7006 41.3179 21.1624 41.875ZM28.5136 36.875C28.1624 37.7312 27.4274 39.925 26.9799 39.8025C26.5961 39.7 26.3549 38.0375 26.9036 36.395C27.1807 35.6043 27.5843 34.8638 28.0986 34.2025C28.6486 33.5887 29.2561 33.3837 29.4024 33.6337C29.269 34.7523 28.9694 35.8448 28.5136 36.875ZM34.5799 39.7775C34.4324 39.8537 34.2924 39.9025 34.2286 39.8675C34.1836 39.8425 34.2924 39.7425 34.2924 39.7425C34.2924 39.7425 35.0536 38.9237 35.3536 38.5537C35.5261 38.3362 35.7286 38.0812 35.9486 37.7925V37.875C35.9486 38.8525 35.0024 39.5112 34.5811 39.78L34.5799 39.7775ZM39.2599 38.71C39.1511 38.6337 39.1699 38.3775 39.5349 37.5787C39.7887 37.0658 40.1432 36.6092 40.5774 36.2362C40.6439 36.4255 40.6786 36.6244 40.6799 36.825C40.6848 37.2519 40.5483 37.6685 40.2917 38.0097C40.035 38.3509 39.6727 38.5976 39.2611 38.7112L39.2599 38.71Z" fill="#CD6799"/>
</svg>
