<svg width="64" height="64" viewBox="0 0 64 64" fill="none" xmlns="http://www.w3.org/2000/svg">
<circle cx="32" cy="32" r="32" fill="white"/>
<path d="M48.2627 18.2877L41.0552 14.8177C40.6481 14.6214 40.1901 14.5566 39.7446 14.6323C39.2992 14.708 38.8883 14.9205 38.5689 15.2402L14.9752 36.7502C14.6889 37.0099 14.5175 37.3727 14.4988 37.7588C14.48 38.1449 14.6154 38.5226 14.8752 38.8089C14.9064 38.8427 14.9377 38.8752 14.9714 38.9052L16.8977 40.6552C17.1494 40.8842 17.4734 41.0179 17.8134 41.033C18.1534 41.0481 18.4879 40.9436 18.7589 40.7377L47.1777 19.1877C47.3923 19.0248 47.6482 18.925 47.9164 18.8997C48.1847 18.8743 48.4547 18.9243 48.6961 19.0441C48.9375 19.1639 49.1406 19.3487 49.2827 19.5776C49.4247 19.8066 49.5 20.0707 49.5002 20.3402V20.2564C49.5001 19.845 49.384 19.442 49.1651 19.0937C48.9461 18.7454 48.6333 18.466 48.2627 18.2877Z" fill="#0065A9"/>
<path d="M48.2627 45.7127L41.0552 49.1839C40.648 49.3796 40.1901 49.4441 39.7448 49.3684C39.2994 49.2927 38.8886 49.0806 38.5689 48.7614L14.9752 27.2502C14.6889 26.9904 14.5175 26.6276 14.4988 26.2415C14.48 25.8554 14.6154 25.4777 14.8752 25.1914C14.9064 25.1577 14.9377 25.1252 14.9714 25.0952L16.8977 23.3452C17.1496 23.1151 17.4744 22.9809 17.8152 22.9658C18.156 22.9507 18.4914 23.0558 18.7627 23.2627L47.1777 44.8127C47.3923 44.9756 47.6482 45.0753 47.9164 45.1007C48.1847 45.126 48.4547 45.076 48.6961 44.9562C48.9375 44.8364 49.1406 44.6517 49.2827 44.4227C49.4247 44.1937 49.5 43.9296 49.5002 43.6602V43.7502C49.4988 44.1605 49.382 44.5621 49.1632 44.9091C48.9444 45.2562 48.6323 45.5346 48.2627 45.7127Z" fill="#007ACC"/>
<path d="M41.0547 49.1837C40.6476 49.3794 40.1897 49.4439 39.7444 49.3682C39.299 49.2925 38.8881 49.0804 38.5685 48.7612C38.748 48.9384 38.9758 49.0586 39.2233 49.1069C39.4709 49.1552 39.7272 49.1293 39.9601 49.0325C40.193 48.9357 40.3921 48.7724 40.5326 48.5629C40.6731 48.3535 40.7486 48.1072 40.7497 47.855V16.145C40.7499 15.8916 40.6749 15.6438 40.5342 15.4331C40.3935 15.2224 40.1934 15.0582 39.9593 14.9613C39.7252 14.8643 39.4676 14.8391 39.2191 14.8887C38.9706 14.9383 38.7424 15.0606 38.5635 15.24C38.8829 14.9204 39.2937 14.708 39.7391 14.6321C40.1845 14.5562 40.6425 14.6205 41.0497 14.8162L48.256 18.2812C48.6278 18.4587 48.9419 18.7378 49.162 19.0861C49.3821 19.4345 49.4991 19.8379 49.4997 20.25V43.75C49.4998 44.1617 49.3836 44.5651 49.1644 44.9136C48.9453 45.2622 48.6321 45.5417 48.261 45.72L41.0547 49.1837Z" fill="#1F9CF0"/>
</svg>
